
<svg xmlns="http://www.w3.org/2000/svg" viewBox="0 0 202 40" xmlns:v="https://vecta.io/nano"><path d="M22.8 29c-.2 0-.5 0-.7-.1-2-.3-3.6-2.8-5.9-6.2-.1-.2-.2-.4-.3-.5-.1-.2 0 0 0 0-2.7 3.5-5.1 5.5-7.3 6.1-3.1.8-5.8-.6-7-3.6-.8-2-.9-4.5-.2-6.8.8-2.6 2.5-4.7 4.6-5.9 1.8-1 4.5-1.5 7.9 1.8.7.6 1.3 1.4 2 2.2s0 0 0 0c.2-.3.3-.6.5-.8l3.3-6c.8-1.7 3-2.5 4.8-1.7h0 0c-.1.2-2.2 4.7-5.1 9.5-.4.8-.9 1.4-1.3 2.1s0 0 0 0c.4.6.8 1.2 1.1 1.8l2.2 3.3h0c.8 1.1 2.3 1.4 3.5.7s1.6-1.1 2.4-2.1c1.4-1.7 3.3-4.8 4.7-10.2s2.4-3.1 4.2-2.7h0 0C35 16.4 32.9 21.6 30.1 25c-1.2 1.5-2.6 2.6-4 3.2-1.1.5-2.2.8-3.3.8h0zm0-3.5h0zm-14-10.7c-.5 0-.8.2-1 .3-3.3 1.9-3.8 6.1-3 8.3.8 2 2.3 1.6 2.8 1.5.8-.2 2.8-1.2 6.1-5.8h0l-2.3-2.8c-1.1-1.2-2-1.5-2.6-1.5h0z" fill="#0369a1"/><path fill="#0369a1" d="M59.6 28.1h-4.1l-.9-5.1h-9.3l-2.8 5.1h-4.1L50.7 5.5h4.7l4.2 22.6h0zm-8.3-16.4l-4.1 7.7h6.7l-1.4-7.7-.3-1.7-.5 1c-.2.3-.4.6-.4.7zm14.1 16.4h-3.7l4-22.5h3.7l-4 22.5zm6.5 6.4h-3.7l3.9-22.3h3.4l-.4 2.2c.6-.8 1.5-1.4 2.6-1.9s2.2-.8 3.4-.8 2.8.4 3.8 1.1c1.1.8 1.8 1.8 2.3 3 .4 1.3.6 2.7.3 4.2-.4 2.4-1.5 4.3-3.3 6s-3.9 2.4-6.1 2.4-2.2-.2-3-.6-1.4-1-1.8-1.6l-1.4 8.3h0zm6.2-9.4c1.4 0 2.6-.5 3.7-1.4s1.8-2.1 2-3.6 0-2.7-.8-3.6-1.8-1.4-3.2-1.4-2.6.5-3.7 1.4-1.8 2.1-2 3.6 0 2.7.8 3.6 1.9 1.3 3.2 1.4h0zm14.7 3h-3.7l4-22.5h3.7l-1.6 8.8a5.31 5.31 0 0 1 2.3-1.8c1-.5 2.1-.8 3.3-.8s2.9.6 3.7 1.6c.8 1.1 1 2.6.7 4.3l-1.8 10.4h-3.7l1.7-9.5c.2-1.1 0-2-.5-2.6-.5-.7-1.3-1-2.3-1s-1.9.3-2.6 1c-.8.7-1.3 1.5-1.4 2.6l-1.8 9.5h0zm21.4.4c-1.5 0-2.8-.4-3.8-1.1-1.1-.8-1.8-1.8-2.3-3-.4-1.3-.5-2.7-.3-4.3s.9-3 1.8-4.2c.9-1.3 2.1-2.3 3.4-3 1.4-.8 2.8-1.1 4.2-1.1 1.5 0 2.2.2 3.1.6.8.4 1.5 1 2 1.6l.3-1.8h3.5l-2.8 15.9h-3.5l.4-2.3c-1.6 1.8-3.6 2.7-6 2.7h0zm1.3-3.4c1.4 0 2.6-.5 3.7-1.4s1.8-2.1 2-3.6 0-2.7-.8-3.6-1.8-1.4-3.2-1.4-2.6.4-3.7 1.4c-1.1.9-1.8 2.1-2 3.6s0 2.7.8 3.6 1.8 1.4 3.2 1.4zm18.4 3h-4.3l-1.2-15.9h3.9l.2 9.5v2.5c.4-1.1.6-2 .9-2.5l4.1-9.5h3.5l.7 9.5v2.5c.2-.4.3-.9.5-1.4l.4-1.1 3.6-9.5h3.9l-6.8 15.9H139l-.7-8.7v-2c-.1.4-.4 1-.8 2l-3.6 8.7h0zm21.9.4c-1.5 0-2.8-.4-3.8-1.1-1.1-.8-1.8-1.8-2.3-3-.4-1.3-.5-2.7-.3-4.3s.9-3 1.8-4.2c.9-1.3 2.1-2.3 3.4-3 1.4-.8 2.8-1.1 4.2-1.1 1.5 0 2.2.2 3.1.6.8.4 1.5 1 2 1.6l.3-1.8h3.5l-2.8 15.9h-3.5l.4-2.3c-1.5 1.8-3.5 2.7-6 2.7h0zm1.3-3.4c1.4 0 2.6-.5 3.7-1.4s1.8-2.1 2-3.6 0-2.7-.8-3.6-1.8-1.4-3.2-1.4-2.6.4-3.7 1.4c-1.1.9-1.8 2.1-2 3.6-.3 1.5 0 2.7.8 3.6s1.9 1.4 3.2 1.4zm20 3h-4.2l-2.6-15.9h3.9l1.3 9.6c.1.6.2 1.4.2 2.2l1-2.2 4.7-9.6h3.9l-8.2 15.9h0zm23.7-8l-.1.8h-12.4c-.2 1.4.1 2.5.8 3.3s1.7 1.2 2.9 1.2 2-.2 2.8-.8c.8-.5 1.4-1.2 1.8-2.1h3.5c-.8 1.8-1.9 3.3-3.4 4.3-1.5 1.1-3.3 1.6-5.3 1.6s-4.2-.8-5.5-2.4-1.6-3.6-1.2-6c.3-1.6.9-3 1.9-4.3s2.1-2.3 3.5-3 2.8-1.1 4.3-1.1c2.5 0 4.3.8 5.4 2.2 1.2 1.6 1.5 3.6 1 6.3h0zm-6.9-5.5a5.21 5.21 0 0 0-2.9.9c-.9.6-1.6 1.4-2 2.5h8.7c0-1-.4-1.9-1-2.5-.6-.5-1.6-.8-2.8-.9h0z"/></svg>